#define 3634f765d3be4c00ed929796224f9379KXStVWxnhyt9El4B_width 16
#define 3634f765d3be4c00ed929796224f9379KXStVWxnhyt9El4B_height 16
static char 3634f765d3be4c00ed929796224f9379KXStVWxnhyt9El4B_bits[] = {
  0x00, 0x00, 0x00, 0x00, 0x00, 0x00, 0xF8, 0x1F, 0xFC, 0x3F, 0x06, 0x60, 
  0xE3, 0xC7, 0xF0, 0x0F, 0x18, 0x18, 0x08, 0x10, 0xC0, 0x03, 0xE0, 0x07, 
  0x00, 0x00, 0x00, 0x00, 0x80, 0x01, 0x80, 0x01, };
