#define 4418c7b0576b4aaff19c0bbed6311facWVLm4v8KkoEmKCJv_width 16
#define 4418c7b0576b4aaff19c0bbed6311facWVLm4v8KkoEmKCJv_height 16
static char 4418c7b0576b4aaff19c0bbed6311facWVLm4v8KkoEmKCJv_bits[] = {
  0x00, 0x00, 0x00, 0x00, 0x00, 0x00, 0x00, 0x00, 0x00, 0x00, 0x00, 0x00, 
  0x00, 0x00, 0x00, 0x00, 0x00, 0x00, 0x00, 0x00, 0xC0, 0x03, 0xE0, 0x07, 
  0x00, 0x00, 0x00, 0x00, 0x80, 0x01, 0x80, 0x01, };
